Full Credits To Feel Free :)

 ######## ######## ######## ##          ######## ########  ######## ######## 
 ##       ##       ##       ##          ##       ##     ## ##       ##       
 ##       ##       ##       ##          ##       ##     ## ##       ##       
 ######   ######   ######   ##          ######   ########  ######   ######   
 ##       ##       ##       ##          ##       ##   ##   ##       ##       
 ##       ##       ##       ##          ##       ##    ##  ##       ##       
 ##       ######## ######## ########    ##       ##     ## ######## ########

Genre:Drama | Thriller
 Language:English
 IMDb: 
http://www.imdb.com/title/tt1571222/
 Source:TNZ/EVOLUTiON Thanks!

 Format : AVI
 Format/Info : Audio Video Interleave
 File size : 710 MiB
 Duration : 1h 33mn
 Overall bit rate : 1 064 Kbps

 Video
 ID : 0
 Format : MPEG-4 Visual
 Format profile : Advanced Simple@L5
 Format settings, BVOP : Yes
 Format settings, QPel : No
 Format settings, GMC : No warppoints
 Format settings, Matrix : Default (H.263)
 Muxing mode : Packed bitstream
 Codec ID : XVID
 Codec ID/Hint : XviD
 Duration : 1h 33mn
 Bit rate : 931 Kbps
 Width : 640 pixels
 Height : 360 pixels
 Display aspect ratio : 16:9
 Frame rate : 25.000 fps
 Color space : YUV
 Chroma subsampling : 4:2:0
 Bit depth : 8 bits
 Scan type : Progressive
 Bits/(Pixel*Frame) : 0.162
 Stream size : 622 MiB (88%)
 Writing library : XviD 1.2.1 (UTC 2008-12-04)

 Audio
 ID : 1
 Format : MPEG Audio
 Format version : Version 1
 Format profile : Layer 3
 Mode : Joint stereo
 Mode extension : MS Stereo
 Codec ID : 55
 Codec ID/Hint : MP3
 Duration : 1h 33mn
 Bit rate mode : Variable
 Bit rate : 120 Kbps
 Channel(s) : 2 channels
 Sampling rate : 48.0 KHz
 Stream size : 80.0 MiB (11%)
 Alignment : Aligned on interleaves
 Interleave, duration : 24 ms (0.60 video frame)
 Interleave, preload duration : 509 ms



 Plot:

 A look at how the intense relationship between Carl Jung and Sigmund Freud gives birth to psychoanalysis.



Greets:

INK,CRYS,IMAGINE,LKRG,FXG,3Li,FLAWL3SS,TA,iLLUSiON,ViSiON,DTRG 
SAFCuk009,LU,TheFalcon007,MYSTiC,PrisM,Noir,WBZ,LAP,Rx,Kingdom,SAFCuk009+Fabreezy,
HDLiTE,TWiZTED,ExtraTorrentRG.ELEKTRI4KA,MAGNAT,CM8
And to all the other p2p grps past and present






                                                      
  
http://thepiratebay.org/user/hiest








Screenshots:
 
http://www.postimg.com/image/52000/photo-51550.jpg
 
http://www.postimg.com/image/52000/photo-51551.jpg
 
http://www.postimg.com/image/52000/photo-51552.jpg


Full Credits To Feel Free :)

 ######## ######## ######## ##          ######## ########  ######## ######## 
 ##       ##       ##       ##          ##       ##     ## ##       ##       
 ##       ##       ##       ##          ##       ##     ## ##       ##       
 ######   ######   ######   ##          ######   ########  ######   ######   
 ##       ##       ##       ##          ##       ##   ##   ##       ##       
 ##       ##       ##       ##          ##       ##    ##  ##       ##       
 ##       ######## ######## ########    ##       ##     ## ######## ########